<?xml version="1.0" standalone="no"?>
<!DOCTYPE svg PUBLIC "-//W3C//DTD SVG 20010904//EN"
 "http://www.w3.org/TR/2001/REC-SVG-20010904/DTD/svg10.dtd">
<svg version="1.0" xmlns="http://www.w3.org/2000/svg"
 width="581.000000pt" height="581.000000pt" viewBox="0 0 581.000000 581.000000"
 preserveAspectRatio="xMidYMid meet">

<g transform="translate(0.000000,581.000000) scale(0.100000,-0.100000)"
fill="#000000" stroke="none">
<path d="M3155 5739 c-560 -58 -1047 -272 -1428 -629 -112 -105 -1673 -1760
-1668 -1769 2 -3 101 -98 220 -210 119 -112 286 -271 373 -353 l156 -149 814
863 c448 475 839 884 869 909 438 370 1061 430 1551 150 342 -196 572 -513
659 -912 30 -135 33 -377 6 -512 -51 -254 -167 -486 -336 -670 -36 -39 -407
-433 -823 -874 -417 -442 -758 -807 -758 -812 0 -11 738 -711 749 -711 11 0
1549 1632 1641 1740 742 875 759 2150 42 3050 -373 468 -944 792 -1541 875
-142 19 -408 27 -526 14z"/>
<path d="M3238 3753 c-3 -13 -17 -27 -30 -32 -16 -7 -18 -10 -6 -10 9 -1 23
-10 31 -21 l14 -21 6 21 c3 12 14 20 29 21 22 1 22 1 -4 10 -16 6 -28 19 -30
32 l-3 22 -7 -22z"/>
<path d="M2957 3603 c-30 -570 -131 -665 -747 -700 l-135 -7 115 -8 c376 -24
513 -56 610 -144 96 -87 138 -243 159 -594 l7 -125 7 90 c34 412 59 515 146
608 97 103 239 142 606 163 l130 8 -105 8 c-421 29 -536 60 -633 168 -51 57
-79 121 -101 237 -19 96 -36 262 -36 354 0 117 -17 76 -23 -58z"/>
<path d="M3721 3659 c-1 -9 -8 -22 -17 -30 -14 -11 -14 -13 0 -21 9 -5 16 -17
17 -26 0 -12 3 -11 9 6 5 12 17 22 27 22 17 1 17 1 0 11 -10 6 -22 20 -27 32
-6 16 -9 17 -9 6z"/>
<path d="M3493 3587 c-18 -124 -46 -152 -175 -172 -82 -13 -82 -13 -28 -14 71
-1 124 -16 155 -44 23 -21 35 -55 52 -152 6 -39 7 -38 14 26 13 123 50 157
184 168 l70 6 -84 12 c-128 17 -158 48 -170 177 l-6 71 -12 -78z"/>
<path d="M2537 3489 c-7 -54 -32 -78 -93 -88 l-49 -8 44 -8 c62 -11 90 -40
100 -100 l7 -50 8 38 c15 79 28 92 111 113 29 7 29 8 5 11 -75 12 -110 40
-110 91 -1 41 -17 42 -23 1z"/>
<path d="M2575 2572 c-20 -48 -65 -90 -106 -99 -38 -7 -37 -19 2 -27 17 -3 46
-21 65 -40 19 -19 37 -48 40 -65 4 -17 10 -31 14 -31 4 0 10 14 14 31 8 40 65
97 105 105 39 8 40 20 2 27 -42 9 -88 52 -104 100 l-14 42 -18 -43z"/>
<path d="M1305 2555 c-122 -36 -232 -80 -555 -222 -162 -72 -339 -149 -392
-173 -163 -70 -282 -174 -270 -235 7 -38 88 -59 206 -53 81 5 107 11 231 60
77 31 212 87 301 126 88 39 245 105 349 147 247 101 305 129 339 164 55 57 42
149 -27 191 -41 26 -84 24 -182 -5z"/>
<path d="M1734 1854 c-53 -26 -265 -243 -366 -374 -228 -296 -470 -629 -494
-676 -18 -37 -24 -64 -22 -95 l3 -44 47 2 c79 2 126 36 318 221 193 187 303
312 402 456 34 50 84 118 112 151 73 89 144 202 152 242 9 50 -17 100 -61 119
-43 17 -52 17 -91 -2z"/>
<path d="M2267 1540 c-56 -35 -61 -51 -111 -325 -50 -274 -69 -447 -70 -635
l-1 -165 39 -97 c25 -63 44 -98 53 -98 26 0 93 82 129 155 31 65 35 88 63 320
71 592 80 698 60 768 -13 48 -64 107 -93 107 -12 0 -43 -13 -69 -30z"/>
</g>
<style>
    path{
        fill:#f4be30
    }
    </style>
</svg>
